<svg width="81" height="80" viewBox="0 0 81 80" fill="none" xmlns="http://www.w3.org/2000/svg">
<path opacity="0.3" d="M80.5 40C80.5 62.0914 62.5914 80 40.5 80C18.4086 80 0.5 62.0914 0.5 40C0.5 17.9086 18.4086 0 40.5 0C62.5914 0 80.5 17.9086 80.5 40ZM11.4071 40C11.4071 56.0675 24.4325 69.0929 40.5 69.0929C56.5675 69.0929 69.5929 56.0675 69.5929 40C69.5929 23.9325 56.5675 10.9071 40.5 10.9071C24.4325 10.9071 11.4071 23.9325 11.4071 40Z" fill="#2F2E30"/>
<circle cx="40.5" cy="40" r="29" fill="black"/>
<path d="M40.9277 49.7729H41.4277C42.0521 49.7729 42.6512 49.5249 43.0928 49.0835C43.5343 48.642 43.7821 48.0428 43.7822 47.4185C43.7822 46.794 43.5343 46.195 43.0928 45.7534C42.6512 45.3119 42.0522 45.064 41.4277 45.064H40.9277V49.7729ZM39.5732 39.5005C38.9488 39.5005 38.3497 39.7484 37.9082 40.1899C37.4668 40.6315 37.2188 41.2306 37.2188 41.855C37.2189 42.4791 37.4669 43.0776 37.9082 43.519C38.3497 43.9606 38.9488 44.2095 39.5732 44.2095H40.0732V39.5005H39.5732ZM40.0732 45.064H39.5732C38.7222 45.0639 37.9055 44.7253 37.3037 44.1235C36.7022 43.5218 36.3644 42.7058 36.3643 41.855C36.3643 41.004 36.702 40.1872 37.3037 39.5854C37.9055 38.9837 38.7222 38.646 39.5732 38.646H40.0732V37.7183H40.9277V38.646H41.4277C42.0915 38.646 42.7393 38.8517 43.2812 39.2349C43.7552 39.5701 44.1282 40.0264 44.3623 40.5542L44.4541 40.7856C44.4726 40.8383 44.4805 40.894 44.4775 40.9497C44.4746 41.0057 44.4607 41.0612 44.4365 41.1118C44.4123 41.1624 44.3786 41.2081 44.3369 41.2456C44.2952 41.2831 44.2462 41.3119 44.1934 41.3306C44.1405 41.3492 44.0843 41.357 44.0283 41.354C43.9724 41.351 43.9177 41.3371 43.8672 41.313C43.765 41.2642 43.6862 41.1766 43.6484 41.0698C43.4861 40.6108 43.1847 40.2132 42.7871 39.9321C42.3895 39.6511 41.9147 39.5004 41.4277 39.5005H40.9277V44.2095H41.4277C42.2788 44.2095 43.0955 44.5471 43.6973 45.1489C44.299 45.7507 44.6367 46.5674 44.6367 47.4185C44.6366 48.2693 44.2988 49.0853 43.6973 49.687C43.0955 50.2888 42.2788 50.6274 41.4277 50.6274H40.9277V51.5542H40.0732V50.6274H39.5732C38.9095 50.6274 38.2617 50.4218 37.7197 50.0386C37.1779 49.6554 36.7682 49.1134 36.5469 48.4878L36.542 48.4741C36.5215 48.4209 36.5119 48.3641 36.5137 48.3071C36.5155 48.2501 36.5289 48.1939 36.5527 48.1421C36.5766 48.0902 36.6111 48.0439 36.6533 48.0054C36.6955 47.9669 36.745 47.9365 36.7988 47.9175C36.8526 47.8985 36.9099 47.8906 36.9668 47.894C37.0237 47.8975 37.0797 47.9127 37.1309 47.938C37.1819 47.9633 37.2275 47.9984 37.2646 48.0415C37.3019 48.0848 37.3302 48.1356 37.3477 48.1899L37.3496 48.1968L37.3525 48.2036C37.677 49.1183 38.5483 49.7729 39.5732 49.7729H40.0732V45.064Z" fill="#FAFAFA" stroke="#FAFAFA"/>
<path d="M40.5361 23.8093C44.4382 23.8093 47.9978 25.0427 50.2168 26.1199L50.3447 26.1824C50.784 26.3997 51.1638 26.6083 51.4766 26.7947L48.3457 31.3728L48.1143 31.7107L48.4014 32.0046C50.3396 33.9862 52.1698 36.5167 53.4805 39.1921C54.7934 41.8723 55.5683 44.6626 55.4414 47.1736C55.3155 49.6637 54.3056 51.8865 52.0166 53.5037C49.7054 55.1365 46.038 56.1882 40.5361 56.1882C35.0332 56.1882 31.3546 55.1546 29.0283 53.5437C26.7249 51.9486 25.6988 49.7544 25.5576 47.2859C25.4153 44.7954 26.1757 42.0152 27.4834 39.3201C28.7888 36.6299 30.6227 34.0593 32.5811 31.9988L32.8594 31.7068L32.6328 31.3738L29.5225 26.7966C29.6797 26.704 29.8538 26.6074 30.043 26.5066L30.0449 26.5056C30.2354 26.4032 30.4408 26.2977 30.6611 26.1902L30.7197 26.1619C32.9563 25.0758 36.5841 23.8094 40.5361 23.8093ZM47.457 32.698C43.1083 34.3797 37.8703 34.3799 33.5215 32.7L33.2061 32.5779L32.9756 32.8259C31.1577 34.7853 29.4657 37.19 28.251 39.6931C27.0598 42.1489 26.3686 44.6146 26.3955 46.8035L26.4102 47.2371C26.5376 49.4716 27.4493 51.4115 29.5127 52.8416C31.6392 54.3135 35.1197 55.3337 40.5352 55.3337C45.9465 55.3337 49.4126 54.2955 51.5215 52.8054C53.5713 51.3567 54.4725 49.3907 54.5869 47.1296C54.7038 44.813 53.9877 42.1696 52.7119 39.5671L52.7109 39.5652L52.4766 39.1042C51.2861 36.8112 49.7793 34.6957 48 32.8201L47.7695 32.5769L47.457 32.698ZM49.2627 27.0808C46.9933 27.2442 44.3596 27.7296 41.7637 28.4197L40.6553 28.7273C38.7952 29.2646 36.7165 29.2269 34.7295 28.9001L34.334 28.8308C33.8047 28.7327 33.2788 28.6165 32.7578 28.4812L31.4727 28.1472L32.2188 29.2458L33.999 31.8669L34.0908 32.0027L34.2451 32.0574C38.1692 33.4544 42.7998 33.4544 46.7246 32.0593L46.8779 32.0046L46.9697 31.8699L49.7119 27.8621L50.2969 27.0066L49.2627 27.0808ZM40.5352 24.6638C37.2535 24.6639 34.2063 25.5778 32.0801 26.4802L30.8008 27.0232L32.1328 27.4197C32.8895 27.6448 33.6819 27.8409 34.4873 27.99H34.4883C36.5232 28.3648 38.6082 28.43 40.417 27.906L40.418 27.905C42.3862 27.3317 44.3882 26.8813 46.4121 26.5554L46.4766 25.5828C44.7351 25.0585 42.6902 24.6638 40.5352 24.6638Z" fill="#FAFAFA" stroke="#FAFAFA"/>
</svg>
