<svg width="81" height="80" viewBox="0 0 81 80" fill="none" xmlns="http://www.w3.org/2000/svg">
<path opacity="0.3" d="M80.5 40C80.5 62.0914 62.5914 80 40.5 80C18.4086 80 0.5 62.0914 0.5 40C0.5 17.9086 18.4086 0 40.5 0C62.5914 0 80.5 17.9086 80.5 40ZM11.4071 40C11.4071 56.0675 24.4325 69.0929 40.5 69.0929C56.5675 69.0929 69.5929 56.0675 69.5929 40C69.5929 23.9325 56.5675 10.9071 40.5 10.9071C24.4325 10.9071 11.4071 23.9325 11.4071 40Z" fill="#2F2E30"/>
<circle cx="40.5" cy="40" r="29" fill="black"/>
<path d="M40.4834 22.5875C41.5049 22.5875 42.5044 22.7368 43.2578 23.0182L51.5752 26.1354H51.5762C53.7957 26.9621 55.5508 29.5077 55.5508 31.8668V44.2496C55.5508 45.3368 55.2066 46.5896 54.624 47.7487C54.078 48.8349 53.3406 49.8025 52.5312 50.4557L52.3682 50.5826L45.2012 55.9323L45.1953 55.9371C43.9126 56.9262 42.224 57.4332 40.5 57.4332C38.7773 57.4332 37.0849 56.9264 35.7646 55.9479H35.7637L28.5996 50.5992C27.7269 49.9485 26.9256 48.921 26.3428 47.7594C25.7599 46.5977 25.417 45.3448 25.417 44.2662V31.8668C25.417 29.5076 27.1719 26.962 29.3916 26.1354H29.3926L37.709 23.0182C38.4624 22.7367 39.4618 22.5875 40.4834 22.5875ZM40.501 24.0856C39.7024 24.0878 38.8755 24.195 38.2422 24.4313L38.2412 24.4323L29.9248 27.5485H29.9238C29.0963 27.8601 28.3551 28.5226 27.8242 29.2906C27.2931 30.059 26.9336 30.99 26.9336 31.8834V44.2662C26.9336 45.1607 27.2442 46.1894 27.7012 47.1012C28.1581 48.0128 28.7934 48.8727 29.501 49.401L36.668 54.7506C37.7298 55.5445 39.1284 55.9253 40.502 55.9254C41.8759 55.9254 43.2782 55.5444 44.3477 54.7516L44.3496 54.7506L51.5156 49.401L51.5166 49.4C52.2314 48.864 52.8669 48.005 53.3223 47.0944C53.7776 46.1837 54.084 45.1597 54.084 44.2662V31.8668C54.084 30.9808 53.7236 30.054 53.1934 29.2867C52.6628 28.5192 51.9223 27.854 51.0977 27.5338L51.0928 27.5319L42.7754 24.4147L42.7666 24.4117C42.1285 24.1865 41.3004 24.0834 40.501 24.0856Z" fill="#FAFAFA" stroke="#FAFAFA"/>
<path d="M44.9043 34.77C45.1924 34.4822 45.6759 34.482 45.9639 34.77C46.2518 35.058 46.2516 35.5415 45.9639 35.8296L38.7969 42.9966C38.6456 43.1478 38.4578 43.2163 38.2666 43.2163C38.0756 43.2162 37.8885 43.1477 37.7373 42.9966L35.0537 40.313C34.7658 40.0249 34.7657 39.5414 35.0537 39.2534C35.3417 38.9654 35.8252 38.9655 36.1133 39.2534L38.2666 41.4067L38.6211 41.0532L44.9043 34.77Z" fill="#FAFAFA" stroke="#FAFAFA"/>
</svg>
